<?xml version="1.0" encoding="UTF-8" standalone="no"?>
<!DOCTYPE svg PUBLIC "-//W3C//DTD SVG 1.1//EN"
 "http://www.w3.org/Graphics/SVG/1.1/DTD/svg11.dtd">
<!-- Generated by graphviz version 2.47.0 (20210316.0004)
 -->
<!-- Title: dependencies Pages: 1 -->
<svg width="2634pt" height="363pt"
 viewBox="0.00 0.00 2634.00 363.00" xmlns="http://www.w3.org/2000/svg" xmlns:xlink="http://www.w3.org/1999/xlink">
<g id="graph0" class="graph" transform="scale(1 1) rotate(0) translate(4 359)">
<title>dependencies</title>
<polygon fill="white" stroke="transparent" points="-4,4 -4,-359 2630,-359 2630,4 -4,4"/>
<text text-anchor="start" x="1292.01" y="-42.4" font-family="Times-12" font-weight="bold" font-size="14.00">Legend</text>
<polygon fill="#ffffb3" stroke="transparent" points="1079,-10 1079,-30 1099,-30 1099,-10 1079,-10"/>
<text text-anchor="start" x="1102.63" y="-15.4" font-family="Times-12" font-size="14.00"> &#160;Declarations</text>
<polygon fill="#8dd3c7" stroke="transparent" points="1192,-10 1192,-30 1212,-30 1212,-10 1192,-10"/>
<text text-anchor="start" x="1215.73" y="-15.4" font-family="Times-12" font-size="14.00"> &#160;Module</text>
<polygon fill="#80b1d3" stroke="transparent" points="1278,-10 1278,-30 1298,-30 1298,-10 1278,-10"/>
<text text-anchor="start" x="1301.78" y="-15.4" font-family="Times-12" font-size="14.00"> &#160;Bootstrap</text>
<polygon fill="#fdb462" stroke="transparent" points="1375,-10 1375,-30 1395,-30 1395,-10 1375,-10"/>
<text text-anchor="start" x="1398.67" y="-15.4" font-family="Times-12" font-size="14.00"> &#160;Providers</text>
<polygon fill="#fb8072" stroke="transparent" points="1471,-10 1471,-30 1491,-30 1491,-10 1471,-10"/>
<text text-anchor="start" x="1494.73" y="-15.4" font-family="Times-12" font-size="14.00"> &#160;Exports</text>
<g id="clust1" class="cluster">
<title>cluster_AppModule</title>
<polygon fill="none" stroke="black" stroke-dasharray="1,5" points="560,-146 560,-347 1934,-347 1934,-146 560,-146"/>
</g>
<g id="clust3" class="cluster">
<title>cluster_AppModule_imports</title>
<polygon fill="none" stroke="black" points="706,-154 706,-282 1926,-282 1926,-154 706,-154"/>
</g>
<g id="clust6" class="cluster">
<title>cluster_AppModule_providers</title>
<polygon fill="none" stroke="black" points="568,-230 568,-282 698,-282 698,-230 568,-230"/>
</g>
<g id="clust7" class="cluster">
<title>cluster_AuthModule</title>
<polygon fill="none" stroke="black" stroke-dasharray="1,5" points="8,-146 8,-214 552,-214 552,-146 8,-146"/>
</g>
<g id="clust10" class="cluster">
<title>cluster_AuthModule_exports</title>
<polygon fill="none" stroke="black" points="438,-154 438,-206 544,-206 544,-154 438,-154"/>
</g>
<g id="clust12" class="cluster">
<title>cluster_AuthModule_providers</title>
<polygon fill="none" stroke="black" points="16,-154 16,-206 430,-206 430,-154 16,-154"/>
</g>
<g id="clust13" class="cluster">
<title>cluster_CompaniesModule</title>
<polygon fill="none" stroke="black" stroke-dasharray="1,5" points="521,-70 521,-138 719,-138 719,-70 521,-70"/>
</g>
<g id="clust18" class="cluster">
<title>cluster_CompaniesModule_providers</title>
<polygon fill="none" stroke="black" points="529,-78 529,-130 711,-130 711,-78 529,-78"/>
</g>
<g id="clust19" class="cluster">
<title>cluster_DatabasesModule</title>
<polygon fill="none" stroke="black" stroke-dasharray="1,5" points="727,-70 727,-138 1059,-138 1059,-70 727,-70"/>
</g>
<g id="clust24" class="cluster">
<title>cluster_DatabasesModule_providers</title>
<polygon fill="none" stroke="black" points="735,-78 735,-130 1051,-130 1051,-78 735,-78"/>
</g>
<g id="clust25" class="cluster">
<title>cluster_FilesModule</title>
<polygon fill="none" stroke="black" stroke-dasharray="1,5" points="1067,-70 1067,-138 1217,-138 1217,-70 1067,-70"/>
</g>
<g id="clust30" class="cluster">
<title>cluster_FilesModule_providers</title>
<polygon fill="none" stroke="black" points="1075,-78 1075,-130 1209,-130 1209,-78 1075,-78"/>
</g>
<g id="clust31" class="cluster">
<title>cluster_JobsModule</title>
<polygon fill="none" stroke="black" stroke-dasharray="1,5" points="1225,-70 1225,-138 1371,-138 1371,-70 1225,-70"/>
</g>
<g id="clust36" class="cluster">
<title>cluster_JobsModule_providers</title>
<polygon fill="none" stroke="black" points="1233,-78 1233,-130 1363,-130 1363,-78 1233,-78"/>
</g>
<g id="clust37" class="cluster">
<title>cluster_MailModule</title>
<polygon fill="none" stroke="black" stroke-dasharray="1,5" points="1942,-222 1942,-290 2202,-290 2202,-222 1942,-222"/>
</g>
<g id="clust40" class="cluster">
<title>cluster_MailModule_exports</title>
<polygon fill="none" stroke="black" points="2090,-230 2090,-282 2194,-282 2194,-230 2090,-230"/>
</g>
<g id="clust42" class="cluster">
<title>cluster_MailModule_providers</title>
<polygon fill="none" stroke="black" points="1950,-230 1950,-282 2082,-282 2082,-230 1950,-230"/>
</g>
<g id="clust43" class="cluster">
<title>cluster_PermissionsModule</title>
<polygon fill="none" stroke="black" stroke-dasharray="1,5" points="1379,-70 1379,-138 1585,-138 1585,-70 1379,-70"/>
</g>
<g id="clust48" class="cluster">
<title>cluster_PermissionsModule_providers</title>
<polygon fill="none" stroke="black" points="1387,-78 1387,-130 1577,-130 1577,-78 1387,-78"/>
</g>
<g id="clust49" class="cluster">
<title>cluster_ResumesModule</title>
<polygon fill="none" stroke="black" stroke-dasharray="1,5" points="1593,-70 1593,-138 1775,-138 1775,-70 1593,-70"/>
</g>
<g id="clust54" class="cluster">
<title>cluster_ResumesModule_providers</title>
<polygon fill="none" stroke="black" points="1601,-78 1601,-130 1767,-130 1767,-78 1601,-78"/>
</g>
<g id="clust55" class="cluster">
<title>cluster_RolesModule</title>
<polygon fill="none" stroke="black" stroke-dasharray="1,5" points="2210,-222 2210,-290 2484,-290 2484,-222 2210,-222"/>
</g>
<g id="clust58" class="cluster">
<title>cluster_RolesModule_exports</title>
<polygon fill="none" stroke="black" points="2366,-230 2366,-282 2476,-282 2476,-230 2366,-230"/>
</g>
<g id="clust60" class="cluster">
<title>cluster_RolesModule_providers</title>
<polygon fill="none" stroke="black" points="2218,-230 2218,-282 2358,-282 2358,-230 2218,-230"/>
</g>
<g id="clust61" class="cluster">
<title>cluster_SubscribersModule</title>
<polygon fill="none" stroke="black" stroke-dasharray="1,5" points="1783,-70 1783,-138 1985,-138 1985,-70 1783,-70"/>
</g>
<g id="clust66" class="cluster">
<title>cluster_SubscribersModule_providers</title>
<polygon fill="none" stroke="black" points="1791,-78 1791,-130 1977,-130 1977,-78 1791,-78"/>
</g>
<g id="clust67" class="cluster">
<title>cluster_UsersModule</title>
<polygon fill="none" stroke="black" stroke-dasharray="1,5" points="2492,-222 2492,-290 2618,-290 2618,-222 2492,-222"/>
</g>
<g id="clust70" class="cluster">
<title>cluster_UsersModule_exports</title>
<polygon fill="none" stroke="black" points="2500,-230 2500,-282 2610,-282 2610,-230 2500,-230"/>
</g>
<!-- AuthModule -->
<g id="node1" class="node">
<title>AuthModule</title>
<polygon fill="#8dd3c7" stroke="black" points="879.55,-274 876.55,-278 855.55,-278 852.55,-274 792.45,-274 792.45,-238 879.55,-238 879.55,-274"/>
<text text-anchor="middle" x="836" y="-251.8" font-family="Times,serif" font-size="14.00">AuthModule</text>
</g>
<!-- AppModule -->
<g id="node12" class="node">
<title>AppModule</title>
<polygon fill="#8dd3c7" stroke="black" points="1235.66,-339 1232.66,-343 1211.66,-343 1208.66,-339 1152.34,-339 1152.34,-303 1235.66,-303 1235.66,-339"/>
<text text-anchor="middle" x="1194" y="-316.8" font-family="Times,serif" font-size="14.00">AppModule</text>
</g>
<!-- AuthModule&#45;&gt;AppModule -->
<g id="edge1" class="edge">
<title>AuthModule&#45;&gt;AppModule</title>
<path fill="none" stroke="black" d="M879.79,-260C968.96,-260 1163.24,-260 1163.24,-260 1163.24,-260 1163.24,-292.7 1163.24,-292.7"/>
<polygon fill="black" stroke="black" points="1159.74,-292.7 1163.24,-302.7 1166.74,-292.7 1159.74,-292.7"/>
</g>
<!-- AuthService  -->
<g id="node14" class="node">
<title>AuthService </title>
<polygon fill="#fb8072" stroke="black" points="535.98,-198 446.02,-198 446.02,-162 535.98,-162 535.98,-198"/>
<text text-anchor="middle" x="491" y="-175.8" font-family="Times,serif" font-size="14.00">AuthService </text>
</g>
<!-- AuthModule&#45;&gt;AuthService  -->
<g id="edge16" class="edge">
<title>AuthModule&#45;&gt;AuthService </title>
<path fill="none" stroke="black" stroke-dasharray="5,2" d="M792.31,-256C750.65,-256 694.23,-256 694.23,-256 694.23,-256 694.23,-186 694.23,-186 694.23,-186 545.85,-186 545.85,-186"/>
<polygon fill="black" stroke="black" points="545.85,-182.5 535.85,-186 545.85,-189.5 545.85,-182.5"/>
</g>
<!-- CompaniesModule -->
<g id="node2" class="node">
<title>CompaniesModule</title>
<polygon fill="#8dd3c7" stroke="black" points="836.04,-198 833.04,-202 812.04,-202 809.04,-198 713.96,-198 713.96,-162 836.04,-162 836.04,-198"/>
<text text-anchor="middle" x="775" y="-175.8" font-family="Times,serif" font-size="14.00">CompaniesModule</text>
</g>
<!-- CompaniesModule&#45;&gt;AppModule -->
<g id="edge2" class="edge">
<title>CompaniesModule&#45;&gt;AppModule</title>
<path fill="none" stroke="black" d="M752.98,-198.07C752.98,-236.94 752.98,-325 752.98,-325 752.98,-325 1142.11,-325 1142.11,-325"/>
<polygon fill="black" stroke="black" points="1142.11,-328.5 1152.11,-325 1142.11,-321.5 1142.11,-328.5"/>
</g>
<!-- DatabasesModule -->
<g id="node3" class="node">
<title>DatabasesModule</title>
<polygon fill="#8dd3c7" stroke="black" points="1080.29,-198 1077.29,-202 1056.29,-202 1053.29,-198 963.71,-198 963.71,-162 1080.29,-162 1080.29,-198"/>
<text text-anchor="middle" x="1022" y="-175.8" font-family="Times,serif" font-size="14.00">DatabasesModule</text>
</g>
<!-- DatabasesModule&#45;&gt;AppModule -->
<g id="edge3" class="edge">
<title>DatabasesModule&#45;&gt;AppModule</title>
<path fill="none" stroke="black" d="M1022,-198.21C1022,-234.21 1022,-311 1022,-311 1022,-311 1141.92,-311 1141.92,-311"/>
<polygon fill="black" stroke="black" points="1141.92,-314.5 1151.92,-311 1141.92,-307.5 1141.92,-314.5"/>
</g>
<!-- FilesModule -->
<g id="node4" class="node">
<title>FilesModule</title>
<polygon fill="#8dd3c7" stroke="black" points="1185.27,-198 1182.27,-202 1161.27,-202 1158.27,-198 1098.73,-198 1098.73,-162 1185.27,-162 1185.27,-198"/>
<text text-anchor="middle" x="1142" y="-175.8" font-family="Times,serif" font-size="14.00">FilesModule</text>
</g>
<!-- FilesModule&#45;&gt;AppModule -->
<g id="edge4" class="edge">
<title>FilesModule&#45;&gt;AppModule</title>
<path fill="none" stroke="black" d="M1174.31,-198.14C1174.31,-198.14 1174.31,-292.93 1174.31,-292.93"/>
<polygon fill="black" stroke="black" points="1170.81,-292.92 1174.31,-302.93 1177.81,-292.93 1170.81,-292.92"/>
</g>
<!-- JobsModule -->
<g id="node5" class="node">
<title>JobsModule</title>
<polygon fill="#8dd3c7" stroke="black" points="1288.44,-198 1285.44,-202 1264.44,-202 1261.44,-198 1203.56,-198 1203.56,-162 1288.44,-162 1288.44,-198"/>
<text text-anchor="middle" x="1246" y="-175.8" font-family="Times,serif" font-size="14.00">JobsModule</text>
</g>
<!-- JobsModule&#45;&gt;AppModule -->
<g id="edge5" class="edge">
<title>JobsModule&#45;&gt;AppModule</title>
<path fill="none" stroke="black" d="M1219.8,-198.14C1219.8,-198.14 1219.8,-292.93 1219.8,-292.93"/>
<polygon fill="black" stroke="black" points="1216.3,-292.92 1219.8,-302.93 1223.3,-292.93 1216.3,-292.92"/>
</g>
<!-- MailModule -->
<g id="node6" class="node">
<title>MailModule</title>
<polygon fill="#8dd3c7" stroke="black" points="1807.99,-198 1804.99,-202 1783.99,-202 1780.99,-198 1722.01,-198 1722.01,-162 1807.99,-162 1807.99,-198"/>
<text text-anchor="middle" x="1765" y="-175.8" font-family="Times,serif" font-size="14.00">MailModule</text>
</g>
<!-- MailModule&#45;&gt;AuthModule -->
<g id="edge13" class="edge">
<title>MailModule&#45;&gt;AuthModule</title>
<path fill="none" stroke="black" d="M1739.2,-198.03C1739.2,-217.58 1739.2,-246 1739.2,-246 1739.2,-246 889.56,-246 889.56,-246"/>
<polygon fill="black" stroke="black" points="889.56,-242.5 879.56,-246 889.56,-249.5 889.56,-242.5"/>
</g>
<!-- MailModule&#45;&gt;AppModule -->
<g id="edge6" class="edge">
<title>MailModule&#45;&gt;AppModule</title>
<path fill="none" stroke="black" d="M1756.4,-198.03C1756.4,-237.28 1756.4,-327 1756.4,-327 1756.4,-327 1245.81,-327 1245.81,-327"/>
<polygon fill="black" stroke="black" points="1245.81,-323.5 1235.81,-327 1245.81,-330.5 1245.81,-323.5"/>
</g>
<!-- MailService  -->
<g id="node23" class="node">
<title>MailService </title>
<polygon fill="#fb8072" stroke="black" points="2185.92,-274 2098.08,-274 2098.08,-238 2185.92,-238 2185.92,-274"/>
<text text-anchor="middle" x="2142" y="-251.8" font-family="Times,serif" font-size="14.00">MailService </text>
</g>
<!-- MailModule&#45;&gt;MailService  -->
<g id="edge25" class="edge">
<title>MailModule&#45;&gt;MailService </title>
<path fill="none" stroke="black" stroke-dasharray="5,2" d="M1773.6,-198.19C1773.6,-213.18 1773.6,-232 1773.6,-232 1773.6,-232 2142,-232 2142,-232 2142,-232 2142,-232.58 2142,-232.58"/>
<polygon fill="black" stroke="black" points="2138.5,-227.81 2142,-237.81 2145.5,-227.81 2138.5,-227.81"/>
</g>
<!-- PermissionsModule -->
<g id="node7" class="node">
<title>PermissionsModule</title>
<polygon fill="#8dd3c7" stroke="black" points="1433.71,-198 1430.71,-202 1409.71,-202 1406.71,-198 1306.29,-198 1306.29,-162 1433.71,-162 1433.71,-198"/>
<text text-anchor="middle" x="1370" y="-175.8" font-family="Times,serif" font-size="14.00">PermissionsModule</text>
</g>
<!-- PermissionsModule&#45;&gt;AppModule -->
<g id="edge7" class="edge">
<title>PermissionsModule&#45;&gt;AppModule</title>
<path fill="none" stroke="black" d="M1370,-198.21C1370,-233.77 1370,-309 1370,-309 1370,-309 1245.71,-309 1245.71,-309"/>
<polygon fill="black" stroke="black" points="1245.71,-305.5 1235.71,-309 1245.71,-312.5 1245.71,-305.5"/>
</g>
<!-- ResumesModule -->
<g id="node8" class="node">
<title>ResumesModule</title>
<polygon fill="#8dd3c7" stroke="black" points="1562.1,-198 1559.1,-202 1538.1,-202 1535.1,-198 1451.9,-198 1451.9,-162 1562.1,-162 1562.1,-198"/>
<text text-anchor="middle" x="1507" y="-175.8" font-family="Times,serif" font-size="14.00">ResumesModule</text>
</g>
<!-- ResumesModule&#45;&gt;AppModule -->
<g id="edge8" class="edge">
<title>ResumesModule&#45;&gt;AppModule</title>
<path fill="none" stroke="black" d="M1507,-198.21C1507,-235.06 1507,-315 1507,-315 1507,-315 1245.89,-315 1245.89,-315"/>
<polygon fill="black" stroke="black" points="1245.89,-311.5 1235.89,-315 1245.89,-318.5 1245.89,-311.5"/>
</g>
<!-- RolesModule -->
<g id="node9" class="node">
<title>RolesModule</title>
<polygon fill="#8dd3c7" stroke="black" points="1917.94,-198 1914.94,-202 1893.94,-202 1890.94,-198 1826.06,-198 1826.06,-162 1917.94,-162 1917.94,-198"/>
<text text-anchor="middle" x="1872" y="-175.8" font-family="Times,serif" font-size="14.00">RolesModule</text>
</g>
<!-- RolesModule&#45;&gt;AuthModule -->
<g id="edge14" class="edge">
<title>RolesModule&#45;&gt;AuthModule</title>
<path fill="none" stroke="black" d="M1856.76,-198.04C1856.76,-219.66 1856.76,-253 1856.76,-253 1856.76,-253 889.86,-253 889.86,-253"/>
<polygon fill="black" stroke="black" points="889.86,-249.5 879.86,-253 889.86,-256.5 889.86,-249.5"/>
</g>
<!-- RolesModule&#45;&gt;AppModule -->
<g id="edge9" class="edge">
<title>RolesModule&#45;&gt;AppModule</title>
<path fill="none" stroke="black" d="M1887.24,-198.27C1887.24,-239.06 1887.24,-334 1887.24,-334 1887.24,-334 1245.8,-334 1245.8,-334"/>
<polygon fill="black" stroke="black" points="1245.8,-330.5 1235.8,-334 1245.8,-337.5 1245.8,-330.5"/>
</g>
<!-- RolesService  -->
<g id="node27" class="node">
<title>RolesService </title>
<polygon fill="#fb8072" stroke="black" points="2467.86,-274 2374.14,-274 2374.14,-238 2467.86,-238 2467.86,-274"/>
<text text-anchor="middle" x="2421" y="-251.8" font-family="Times,serif" font-size="14.00">RolesService </text>
</g>
<!-- RolesModule&#45;&gt;RolesService  -->
<g id="edge29" class="edge">
<title>RolesModule&#45;&gt;RolesService </title>
<path fill="none" stroke="black" stroke-dasharray="5,2" d="M1917.86,-174C2049.81,-174 2421,-174 2421,-174 2421,-174 2421,-227.8 2421,-227.8"/>
<polygon fill="black" stroke="black" points="2417.5,-227.8 2421,-237.8 2424.5,-227.8 2417.5,-227.8"/>
</g>
<!-- SubscribersModule -->
<g id="node10" class="node">
<title>SubscribersModule</title>
<polygon fill="#8dd3c7" stroke="black" points="1704.36,-198 1701.36,-202 1680.36,-202 1677.36,-198 1579.64,-198 1579.64,-162 1704.36,-162 1704.36,-198"/>
<text text-anchor="middle" x="1642" y="-175.8" font-family="Times,serif" font-size="14.00">SubscribersModule</text>
</g>
<!-- SubscribersModule&#45;&gt;AppModule -->
<g id="edge10" class="edge">
<title>SubscribersModule&#45;&gt;AppModule</title>
<path fill="none" stroke="black" d="M1642,-198.14C1642,-236.23 1642,-321 1642,-321 1642,-321 1245.74,-321 1245.74,-321"/>
<polygon fill="black" stroke="black" points="1245.74,-317.5 1235.74,-321 1245.74,-324.5 1245.74,-317.5"/>
</g>
<!-- UsersModule -->
<g id="node11" class="node">
<title>UsersModule</title>
<polygon fill="#8dd3c7" stroke="black" points="945.92,-198 942.92,-202 921.92,-202 918.92,-198 854.08,-198 854.08,-162 945.92,-162 945.92,-198"/>
<text text-anchor="middle" x="900" y="-175.8" font-family="Times,serif" font-size="14.00">UsersModule</text>
</g>
<!-- UsersModule&#45;&gt;AuthModule -->
<g id="edge15" class="edge">
<title>UsersModule&#45;&gt;AuthModule</title>
<path fill="none" stroke="black" d="M867.03,-198.01C867.03,-198.01 867.03,-227.85 867.03,-227.85"/>
<polygon fill="black" stroke="black" points="863.53,-227.85 867.03,-237.85 870.53,-227.85 863.53,-227.85"/>
</g>
<!-- UsersModule&#45;&gt;AppModule -->
<g id="edge11" class="edge">
<title>UsersModule&#45;&gt;AppModule</title>
<path fill="none" stroke="black" d="M923.73,-198.04C923.73,-235.45 923.73,-318 923.73,-318 923.73,-318 1142.07,-318 1142.07,-318"/>
<polygon fill="black" stroke="black" points="1142.07,-321.5 1152.07,-318 1142.07,-314.5 1142.07,-321.5"/>
</g>
<!-- UsersService  -->
<g id="node30" class="node">
<title>UsersService </title>
<polygon fill="#fb8072" stroke="black" points="2601.85,-274 2508.15,-274 2508.15,-238 2601.85,-238 2601.85,-274"/>
<text text-anchor="middle" x="2555" y="-251.8" font-family="Times,serif" font-size="14.00">UsersService </text>
</g>
<!-- UsersModule&#45;&gt;UsersService  -->
<g id="edge32" class="edge">
<title>UsersModule&#45;&gt;UsersService </title>
<path fill="none" stroke="black" stroke-dasharray="5,2" d="M901.75,-198.17C901.75,-202.05 901.75,-205 901.75,-205 901.75,-205 2555,-205 2555,-205 2555,-205 2555,-227.88 2555,-227.88"/>
<polygon fill="black" stroke="black" points="2551.5,-227.88 2555,-237.88 2558.5,-227.88 2551.5,-227.88"/>
</g>
<!-- AppService -->
<g id="node13" class="node">
<title>AppService</title>
<ellipse fill="#fdb462" stroke="black" cx="633" cy="-256" rx="56.74" ry="18"/>
<text text-anchor="middle" x="633" y="-251.8" font-family="Times,serif" font-size="14.00">AppService</text>
</g>
<!-- AppService&#45;&gt;AppModule -->
<g id="edge12" class="edge">
<title>AppService&#45;&gt;AppModule</title>
<path fill="none" stroke="black" d="M633,-274.01C633,-296.49 633,-332 633,-332 633,-332 1142.29,-332 1142.29,-332"/>
<polygon fill="black" stroke="black" points="1142.29,-335.5 1152.29,-332 1142.29,-328.5 1142.29,-335.5"/>
</g>
<!-- AuthService -->
<g id="node15" class="node">
<title>AuthService</title>
<ellipse fill="#fdb462" stroke="black" cx="363" cy="-180" rx="59.11" ry="18"/>
<text text-anchor="middle" x="363" y="-175.8" font-family="Times,serif" font-size="14.00">AuthService</text>
</g>
<!-- AuthService&#45;&gt;AuthModule -->
<g id="edge17" class="edge">
<title>AuthService&#45;&gt;AuthModule</title>
<path fill="none" stroke="black" d="M363,-198.24C363,-205.43 363,-212 363,-212 363,-212 825.26,-212 825.26,-212 825.26,-212 825.26,-227.85 825.26,-227.85"/>
<polygon fill="black" stroke="black" points="821.76,-227.85 825.26,-237.85 828.76,-227.85 821.76,-227.85"/>
</g>
<!-- JwtStrategy -->
<g id="node16" class="node">
<title>JwtStrategy</title>
<ellipse fill="#fdb462" stroke="black" cx="229" cy="-180" rx="56.76" ry="18"/>
<text text-anchor="middle" x="229" y="-175.8" font-family="Times,serif" font-size="14.00">JwtStrategy</text>
</g>
<!-- JwtStrategy&#45;&gt;AuthModule -->
<g id="edge18" class="edge">
<title>JwtStrategy&#45;&gt;AuthModule</title>
<path fill="none" stroke="black" d="M229,-198.11C229,-207.9 229,-218 229,-218 229,-218 814.25,-218 814.25,-218 814.25,-218 814.25,-227.89 814.25,-227.89"/>
<polygon fill="black" stroke="black" points="810.75,-227.89 814.25,-237.89 817.75,-227.89 810.75,-227.89"/>
</g>
<!-- LocalStrategy -->
<g id="node17" class="node">
<title>LocalStrategy</title>
<ellipse fill="#fdb462" stroke="black" cx="89" cy="-180" rx="65.41" ry="18"/>
<text text-anchor="middle" x="89" y="-175.8" font-family="Times,serif" font-size="14.00">LocalStrategy</text>
</g>
<!-- LocalStrategy&#45;&gt;AuthModule -->
<g id="edge19" class="edge">
<title>LocalStrategy&#45;&gt;AuthModule</title>
<path fill="none" stroke="black" d="M89,-198.04C89,-210.56 89,-225 89,-225 89,-225 803.24,-225 803.24,-225 803.24,-225 803.24,-227.97 803.24,-227.97"/>
<polygon fill="black" stroke="black" points="799.74,-227.97 803.24,-237.97 806.74,-227.97 799.74,-227.97"/>
</g>
<!-- CompaniesService -->
<g id="node18" class="node">
<title>CompaniesService</title>
<ellipse fill="#fdb462" stroke="black" cx="620" cy="-104" rx="83.38" ry="18"/>
<text text-anchor="middle" x="620" y="-99.8" font-family="Times,serif" font-size="14.00">CompaniesService</text>
</g>
<!-- CompaniesService&#45;&gt;CompaniesModule -->
<g id="edge20" class="edge">
<title>CompaniesService&#45;&gt;CompaniesModule</title>
<path fill="none" stroke="black" d="M698.83,-109.97C698.83,-126.9 698.83,-174 698.83,-174 698.83,-174 703.88,-174 703.88,-174"/>
<polygon fill="black" stroke="black" points="703.88,-177.5 713.88,-174 703.88,-170.5 703.88,-177.5"/>
</g>
<!-- DatabasesService -->
<g id="node19" class="node">
<title>DatabasesService</title>
<ellipse fill="#fdb462" stroke="black" cx="964" cy="-104" rx="79.27" ry="18"/>
<text text-anchor="middle" x="964" y="-99.8" font-family="Times,serif" font-size="14.00">DatabasesService</text>
</g>
<!-- DatabasesService&#45;&gt;DatabasesModule -->
<g id="edge21" class="edge">
<title>DatabasesService&#45;&gt;DatabasesModule</title>
<path fill="none" stroke="black" d="M1016.71,-117.59C1016.71,-117.59 1016.71,-151.96 1016.71,-151.96"/>
<polygon fill="black" stroke="black" points="1013.21,-151.96 1016.71,-161.96 1020.21,-151.96 1013.21,-151.96"/>
</g>
<!-- UsersService -->
<g id="node20" class="node">
<title>UsersService</title>
<ellipse fill="#fdb462" stroke="black" cx="805" cy="-104" rx="61.95" ry="18"/>
<text text-anchor="middle" x="805" y="-99.8" font-family="Times,serif" font-size="14.00">UsersService</text>
</g>
<!-- UsersService&#45;&gt;DatabasesModule -->
<g id="edge22" class="edge">
<title>UsersService&#45;&gt;DatabasesModule</title>
<path fill="none" stroke="black" d="M862.75,-110.64C862.75,-123.16 862.75,-149 862.75,-149 862.75,-149 990.28,-149 990.28,-149 990.28,-149 990.28,-151.97 990.28,-151.97"/>
<polygon fill="black" stroke="black" points="986.78,-151.97 990.28,-161.97 993.78,-151.97 986.78,-151.97"/>
</g>
<!-- UsersService&#45;&gt;UsersModule -->
<g id="edge33" class="edge">
<title>UsersService&#45;&gt;UsersModule</title>
<path fill="none" stroke="black" d="M858.52,-113.32C858.52,-113.32 858.52,-151.89 858.52,-151.89"/>
<polygon fill="black" stroke="black" points="855.02,-151.89 858.52,-161.89 862.02,-151.89 855.02,-151.89"/>
</g>
<!-- FilesService -->
<g id="node21" class="node">
<title>FilesService</title>
<ellipse fill="#fdb462" stroke="black" cx="1142" cy="-104" rx="58.54" ry="18"/>
<text text-anchor="middle" x="1142" y="-99.8" font-family="Times,serif" font-size="14.00">FilesService</text>
</g>
<!-- FilesService&#45;&gt;FilesModule -->
<g id="edge23" class="edge">
<title>FilesService&#45;&gt;FilesModule</title>
<path fill="none" stroke="black" d="M1142,-122.01C1142,-122.01 1142,-151.85 1142,-151.85"/>
<polygon fill="black" stroke="black" points="1138.5,-151.85 1142,-161.85 1145.5,-151.85 1138.5,-151.85"/>
</g>
<!-- JobsService -->
<g id="node22" class="node">
<title>JobsService</title>
<ellipse fill="#fdb462" stroke="black" cx="1298" cy="-104" rx="57.32" ry="18"/>
<text text-anchor="middle" x="1298" y="-99.8" font-family="Times,serif" font-size="14.00">JobsService</text>
</g>
<!-- JobsService&#45;&gt;JobsModule -->
<g id="edge24" class="edge">
<title>JobsService&#45;&gt;JobsModule</title>
<path fill="none" stroke="black" d="M1264.53,-118.65C1264.53,-118.65 1264.53,-151.9 1264.53,-151.9"/>
<polygon fill="black" stroke="black" points="1261.03,-151.9 1264.53,-161.9 1268.03,-151.9 1261.03,-151.9"/>
</g>
<!-- MailService -->
<g id="node24" class="node">
<title>MailService</title>
<ellipse fill="#fdb462" stroke="black" cx="2016" cy="-256" rx="58.46" ry="18"/>
<text text-anchor="middle" x="2016" y="-251.8" font-family="Times,serif" font-size="14.00">MailService</text>
</g>
<!-- MailService&#45;&gt;MailModule -->
<g id="edge26" class="edge">
<title>MailService&#45;&gt;MailModule</title>
<path fill="none" stroke="black" d="M1969.88,-267C1904,-267 1790.8,-267 1790.8,-267 1790.8,-267 1790.8,-208.03 1790.8,-208.03"/>
<polygon fill="black" stroke="black" points="1794.3,-208.03 1790.8,-198.03 1787.3,-208.03 1794.3,-208.03"/>
</g>
<!-- PermissionsService -->
<g id="node25" class="node">
<title>PermissionsService</title>
<ellipse fill="#fdb462" stroke="black" cx="1482" cy="-104" rx="86.83" ry="18"/>
<text text-anchor="middle" x="1482" y="-99.8" font-family="Times,serif" font-size="14.00">PermissionsService</text>
</g>
<!-- PermissionsService&#45;&gt;PermissionsModule -->
<g id="edge27" class="edge">
<title>PermissionsService&#45;&gt;PermissionsModule</title>
<path fill="none" stroke="black" d="M1414.47,-115.54C1414.47,-115.54 1414.47,-151.83 1414.47,-151.83"/>
<polygon fill="black" stroke="black" points="1410.97,-151.83 1414.47,-161.83 1417.97,-151.83 1410.97,-151.83"/>
</g>
<!-- ResumesService -->
<g id="node26" class="node">
<title>ResumesService</title>
<ellipse fill="#fdb462" stroke="black" cx="1684" cy="-104" rx="74.71" ry="18"/>
<text text-anchor="middle" x="1684" y="-99.8" font-family="Times,serif" font-size="14.00">ResumesService</text>
</g>
<!-- ResumesService&#45;&gt;ResumesModule -->
<g id="edge28" class="edge">
<title>ResumesService&#45;&gt;ResumesModule</title>
<path fill="none" stroke="black" d="M1608.88,-104C1589.57,-104 1574.12,-104 1574.12,-104 1574.12,-104 1574.12,-180 1574.12,-180 1574.12,-180 1572.12,-180 1572.12,-180"/>
<polygon fill="black" stroke="black" points="1572.12,-176.5 1562.12,-180 1572.12,-183.5 1572.12,-176.5"/>
</g>
<!-- RolesService -->
<g id="node28" class="node">
<title>RolesService</title>
<ellipse fill="#fdb462" stroke="black" cx="2288" cy="-256" rx="61.97" ry="18"/>
<text text-anchor="middle" x="2288" y="-251.8" font-family="Times,serif" font-size="14.00">RolesService</text>
</g>
<!-- RolesService&#45;&gt;RolesModule -->
<g id="edge30" class="edge">
<title>RolesService&#45;&gt;RolesModule</title>
<path fill="none" stroke="black" d="M2288,-237.97C2288,-217.23 2288,-186 2288,-186 2288,-186 1928.11,-186 1928.11,-186"/>
<polygon fill="black" stroke="black" points="1928.11,-182.5 1918.11,-186 1928.11,-189.5 1928.11,-182.5"/>
</g>
<!-- SubscribersService -->
<g id="node29" class="node">
<title>SubscribersService</title>
<ellipse fill="#fdb462" stroke="black" cx="1884" cy="-104" rx="85.09" ry="18"/>
<text text-anchor="middle" x="1884" y="-99.8" font-family="Times,serif" font-size="14.00">SubscribersService</text>
</g>
<!-- SubscribersService&#45;&gt;SubscribersModule -->
<g id="edge31" class="edge">
<title>SubscribersService&#45;&gt;SubscribersModule</title>
<path fill="none" stroke="black" d="M1803.48,-109.87C1803.48,-119.11 1803.48,-136 1803.48,-136 1803.48,-136 1656.79,-136 1656.79,-136 1656.79,-136 1656.79,-151.85 1656.79,-151.85"/>
<polygon fill="black" stroke="black" points="1653.29,-151.85 1656.79,-161.85 1660.29,-151.85 1653.29,-151.85"/>
</g>
</g>
</svg>
